PathFileType	4	(X/Y/Z)	Run_500 02
DataRate	CameraRate	NumFrames	NumMarkers	Units	OrigDataRate	OrigDataStartFrame	OrigNumFrames
100	100	8	42	mm	100	108	128
Frame#	Time	LASI			RASI			LPSI			RPSI			RTH1			RTH2			RTH3			LTH1			LTH2			LTH3			RTB1			RTB2			RTB3			LTB1			LTB2			LTB3			RCAL			RTOE			RMT5			LCAL			LTOE			LMT5			LACR			RACR			CLAV			C7			RUA1			RUA2			RUA3			RLEL			RMEL			LUA1			LUA2			LUA3			LLEL			LMEL			RFAsuperior			RFAradius			RFAulna			LFAsuperior			LFAradius			LFAulna			
		X1	Y1	Z1	X2	Y2	Z2	X3	Y3	Z3	X4	Y4	Z4	X5	Y5	Z5	X6	Y6	Z6	X7	Y7	Z7	X8	Y8	Z8	X9	Y9	Z9	X10	Y10	Z10	X11	Y11	Z11	X12	Y12	Z12	X13	Y13	Z13	X14	Y14	Z14	X15	Y15	Z15	X16	Y16	Z16	X17	Y17	Z17	X18	Y18	Z18	X19	Y19	Z19	X20	Y20	Z20	X21	Y21	Z21	X22	Y22	Z22	X23	Y23	Z23	X24	Y24	Z24	X25	Y25	Z25	X26	Y26	Z26	X27	Y27	Z27	X28	Y28	Z28	X29	Y29	Z29	X30	Y30	Z30	X31	Y31	Z31	X32	Y32	Z32	X33	Y33	Z33	X34	Y34	Z34	X35	Y35	Z35	X36	Y36	Z36	X37	Y37	Z37	X38	Y38	Z38	X39	Y39	Z39	X40	Y40	Z40	X41	Y41	Z41	X42	Y42	Z42	

106	1.18	821.269354	986.6837849999999	-452.320403	809.214792	1008.921774	-194.551469	647.748322	1035.231964	-380.294436	643.544624	1035.640081	-276.366935	779.007173	832.334461	-148.474174	909.185642	783.128002	-164.959164	915.675703	658.488602	-202.29378	666.8279700000001	827.544156	-502.205453	660.570866	689.088113	-477.400901	549.529704	617.719271	-461.02047	1032.940203	456.730955	-266.291972	998.8694	399.442284	-209.296986	996.976719	291.880643	-278.463047	428.594388	404.94201	-394.298908	335.099894	380.332928	-457.134259	314.823517	296.605023	-392.411051	873.525202	163.15674	-297.146332	1097.025584	124.614966	-297.840917	1037.64696	105.867677	-212.359431	153.999575	298.740793	-385.759082	235.987835	88.59182300000001	-342.949891	184.622389	109.533038	-430.96457	843.773295	1459.116888	-500.393417	758.641885	1499.621881	-183.94058	841.178533	1416.710606	-293.136689	739.081508	1501.532757	-359.567132	664.052958	1463.162918	-125.225902	594.380659	1419.35862	-179.914427	572.638727	1379.46139	-114.865593	484.18743	1310.43186	-101.932258	496.464677	1290.620088	-181.849943	833.434781	1368.756386	-584.374155	781.534328	1283.658745	-574.764998	815.5537409999999	1225.778171	-624.313258	842.9824	1144.778987	-649.829426	802.429039	1123.044296	-582.598291	541.518075	1230.417729	-55.270958	644.856495	1113.118657	-32.168491	581.6234930000001	1077.403539	-38.020949	941.363998	1161.392002	-601.250231	1048.99741	1182.518636	-481.629499	1070.541196	1123.652638	-516.3680869999999	
107	1.19	822.711057	988.139619	-451.829174	812.830869	1011.354265	-195.820465	650.164914	1038.785744	-380.504941	646.691782	1039.8446	-276.566661	778.331594	834.57118	-147.92922	909.214919	784.1294	-166.658184	913.4234279999999	656.218904	-200.508024	665.172057	831.947696	-499.91585	658.663222	691.971121	-477.383127	547.3930319999999	622.106898	-460.379468	1041.519054	453.436636	-266.111674	1015.719656	391.309255	-209.394075	1028.631921	284.46149	-280.28554	418.918498	412.646085	-395.175557	325.526824	392.444539	-459.233387	299.192572	310.716988	-394.867284	924.0178079999999	140.255508	-298.860993	1150.808041	137.292254	-302.680323	1101.189211	105.829344	-218.208769	147.054365	327.645812	-390.626433	197.956336	108.220191	-344.891907	148.326138	135.461575	-432.62231	847.168344	1461.14465	-499.955186	758.939272	1500.939492	-184.180462	842.800956	1418.831551	-293.055117	741.28364	1503.298725	-360.320072	663.329732	1465.118742	-127.618165	595.182864	1421.583382	-184.244974	571.110145	1382.4616	-120.202682	481.740481	1313.894424	-109.893075	496.554054	1293.983568	-188.652803	839.303026	1371.012463	-584.177784	787.325045	1285.799708	-576.137467	822.617216	1228.015598	-624.608011	850.749411	1146.925228	-648.605962	807.717531	1125.051792	-582.88256	537.90506	1233.997756	-61.324774	642.265564	1117.35749	-35.591174	579.558686	1081.050346	-42.808722	946.691223	1165.6314	-596.533802	1048.457806	1190.10837	-473.192165	1073.50696	1131.275885	-506.093836	
108	1.2	823.2085	990.159345	-451.878295	815.283217	1012.450399	-196.965657	652.023864	1042.051369	-381.375479	648.98655	1043.123594	-276.982854	776.681024	833.946924	-148.678391	908.894832	782.387326	-167.249125	909.577478	649.9438720000001	-197.369721	665.381184	834.990997	-497.005992	661.247555	692.105272	-475.959123	551.123097	622.0873810000001	-459.982036	1047.117774	447.972566	-266.456306	1027.14567	382.770955	-208.757797	1054.688773	278.174482	-281.033583	412.987306	417.962147	-395.069334	320.197854	403.894672	-461.128167	285.161913	325.875831	-396.296825	969.27243	122.830633	-299.57517	1193.4128	152.468881	-307.444281	1162.399084	106.407187	-226.610016	138.679605	356.84085	-395.214902	164.164933	133.676837	-344.867644	117.849826	164.847653	-434.112643	849.97255	1462.228234	-499.812051	760.112615	1501.584459	-184.21464	844.6292120000001	1420.193375	-293.084282	743.817724	1504.407634	-360.892218	663.6376729999999	1465.949583	-129.287675	596.850185	1422.129317	-187.557261	571.102917	1383.621649	-124.811796	481.169886	1315.418607	-116.754222	498.552945	1294.859619	-194.010452	843.5428450000001	1372.067787	-584.251123	791.808079	1286.592918	-577.5142509999999	828.683593	1229.033255	-625.147951	857.288437	1148.009914	-647.811502	811.542218	1126.127136	-583.337435	536.638089	1235.737169	-66.408056	642.049085	1119.771409	-38.577789	579.86821	1082.893298	-47.031145	951.2252580000001	1167.523164	-592.6903129999999	1047.523629	1193.604036	-466.010912	1075.269552	1134.977786	-497.341941	
109	1.21	823.041189	992.448187	-452.444514	816.4220790000001	1012.247729	-197.777772	653.536377	1044.554496	-382.123296	650.516615	1044.86698	-277.28094	775.0848130000001	829.959618	-149.702726	907.495734	776.31211	-166.840355	903.110035	640.537816	-195.00104	667.834082	835.746674	-494.457794	667.623197	689.779657	-473.83794	559.691812	618.0344689999999	-459.974291	1050.166286	442.026991	-267.43041	1034.164014	375.503611	-207.99463	1073.453115	274.055494	-281.58152	411.202537	421.831082	-394.573202	318.867189	416.095593	-462.717351	274.373987	342.7924	-397.292683	1005.105258	110.985955	-299.625491	1222.933291	167.385042	-312.258706	1209.552959	109.830604	-234.219423	130.152118	387.347841	-399.650424	136.633389	163.886279	-344.175292	95.11027300000001	196.656073	-435.926627	852.332811	1462.218231	-499.797141	762.253527	1501.352708	-184.036201	846.645668	1420.518662	-293.171427	746.588118	1504.654042	-361.208975	665.151285	1465.648942	-130.106027	599.3960970000001	1421.319025	-189.658648	572.706471	1382.961181	-128.442367	482.587373	1315.003843	-121.853558	502.255008	1293.506201	-197.595959	846.435281	1371.908672	-584.481451	795.115195	1286.435167	-578.639442	833.281885	1228.854176	-625.637708	862.0499589999999	1147.887934	-647.2131869999999	813.590182	1126.29079	-583.719779	538.047372	1235.628099	-70.259159	644.44655	1120.314807	-41.166056	582.76266	1082.838035	-50.63299	954.669431	1166.886486	-589.61303	1046.34256	1193.086349	-460.05103	1075.618761	1134.535813	-490.12186	
110	1.22	822.485193	994.444093	-453.433176	816.430205	1011.12654	-198.403835	654.729934	1045.30981	-382.026502	651.136449	1044.123988	-277.139758	773.5950329999999	822.843919	-149.553666	904.286872	765.7302	-165.672076	894.928493	629.731311	-194.570134	672.6588860000001	833.351997	-493.163679	676.800377	685.605116	-471.947804	571.552277	610.715496	-460.114503	1051.018358	436.92632	-269.188712	1038.199735	370.261395	-208.194709	1084.160264	271.624199	-282.68362	414.040484	424.328881	-394.152555	321.973283	429.117224	-463.70735	268.944468	361.079628	-398.136001	1028.255198	103.122199	-299.72033	1239.273266	179.454523	-315.663189	1231.59606	117.80374	-237.137081	126.005081	419.63783	-403.767757	116.380252	197.38286	-344.573007	80.290342	230.874228	-438.493625	854.400307	1460.988928	-499.773561	765.251648	1500.005142	-183.61202	848.763282	1419.554591	-293.336513	749.472339	1503.898411	-361.19269	667.845496	1464.093633	-130.034633	602.7192250000001	1419.339317	-190.529181	575.760162	1380.623602	-130.817805	485.863361	1312.725723	-124.508613	507.230175	1290.287973	-199.152448	848.456188	1370.626671	-584.688676	797.265434	1285.565068	-579.289216	835.943396	1227.558409	-625.842438	864.450758	1146.428437	-646.657636	813.557412	1125.5124	-583.874826	542.14282	1233.654958	-72.64779900000001	649.50789	1119.061638	-43.281133	588.336081	1080.875791	-53.376924	956.5200139999999	1163.60388	-587.19404	1044.814996	1188.73668	-455.31713	1074.315817	1129.917182	-484.565725	
111	1.23	821.804224	995.503089	-454.633417	815.671871	1009.546021	-199.023796	655.410353	1043.335114	-381.035795	650.57149	1040.181702	-276.468768	771.765522	814.619495	-147.688134	899.438124	753.223658	-163.773285	888.0561740000001	619.97757	-195.65784	679.5408650000001	827.720992	-493.393116	687.721097	680.03245	-470.762493	585.142107	601.161207	-460.141158	1049.75387	432.660476	-271.739102	1039.614784	366.224935	-209.976011	1087.118268	269.217463	-284.446758	421.536801	425.017434	-394.093657	330.198933	441.591867	-463.988932	270.223445	379.300844	-398.978678	1037.491464	97.093574	-300.605904	1244.074159	186.336494	-316.539026	1229.241379	126.766968	-235.285699	131.098596	452.499303	-407.045613	103.157911	232.514889	-346.889642	72.184145	267.684596	-441.725259	856.250848	1458.452716	-499.692553	768.853149	1497.352127	-182.937555	850.867513	1417.173	-293.602211	752.3365690000001	1502.097565	-360.824293	671.491149	1461.109955	-129.119352	606.555955	1416.150613	-190.228027	579.922341	1376.73223	-131.615567	490.591481	1308.634337	-124.311906	512.874605	1285.462046	-198.617231	849.812916	1368.282197	-584.728601	798.020968	1283.937974	-579.439974	836.366266	1225.207887	-625.7039600000001	864.0755820000001	1143.554989	-646.117153	811.263319	1123.736901	-583.7596	548.530312	1229.825784	-73.38493699999999	657.058595	1116.226774	-44.703278	596.441354	1077.159483	-54.905928	956.237301	1157.698333	-585.403272	1042.728849	1180.785583	-451.941697	1071.232964	1121.268328	-480.90267	
112	1.24	821.235997	995.111095	-455.787843	814.458032	1007.705935	-199.541076	655.354202	1038.366294	-379.670515	648.870496	1033.219838	-275.460662	769.539851	808.089949	-144.947337	894.312332	742.830677	-161.333358	885.063366	613.3162610000001	-197.02227	687.642905	819.74236	-494.696584	699.336699	673.401262	-470.402272	599.356629	590.4956110000001	-460.140885	1046.114435	428.077835	-274.802466	1037.543246	361.713642	-212.905093	1083.186377	265.146325	-286.638117	433.200622	423.849366	-394.565151	343.654409	451.601438	-463.90674	278.230249	395.712321	-399.896739	1033.482704	92.02122900000001	-302.810514	1239.593427	184.814391	-315.997748	1213.330584	129.188721	-232.43933	147.717294	483.247948	-408.861417	96.31455099999999	267.569995	-350.937961	69.92439299999999	306.398605	-445.23941	857.873457	1454.549755	-499.604764	772.787369	1493.293833	-182.078349	852.919731	1413.408622	-293.934499	755.03589	1499.283851	-360.139754	675.791372	1456.592891	-127.43382	610.557771	1411.579084	-188.725174	584.8384610000001	1371.303241	-130.554231	496.262785	1302.67776	-121.336168	518.557709	1279.10532	-196.131553	850.326555	1364.786646	-584.594978	797.119434	1281.359592	-579.213826	834.491921	1221.78779	-625.31831	860.806047	1139.283132	-645.6418619999999	806.770757	1120.932315	-583.4158179999999	556.584732	1224.22509	-72.313062	666.792247	1112.138389	-45.147185	606.772623	1072.008584	-54.859576	953.445259	1149.40191	-584.317535	1039.866082	1169.474553	-450.124012	1066.353753	1108.872225	-479.337671	
113	1.25	820.9313969999999	992.996695	-456.757976	812.988481	1005.43878	-199.694558	654.524807	1031.044409	-378.467312	646.617721	1024.379427	-274.511778	767.526613	804.351316	-143.021641	890.814312	737.070876	-159.212389	885.382959	609.798451	-197.809835	695.78614	810.735055	-496.308659	710.797622	666.104958	-470.942368	613.803569	579.6086299999999	-460.502411	1039.790366	421.853121	-277.941772	1031.044387	355.367103	-216.092799	1073.167429	258.2954	-289.223129	448.326211	421.501447	-395.646949	361.507086	457.938142	-464.090816	292.053295	409.1628	-400.791325	1017.832064	88.736676	-306.521114	1227.259908	171.29138	-316.430354	1192.570374	120.039477	-231.861077	174.542272	509.191724	-408.810731	95.804783	300.737276	-356.265265	74.157938	344.997894	-448.862889	859.208299	1449.279242	-499.616973	776.858507	1487.830414	-181.14186	854.9981780000001	1408.428958	-294.268629	757.4101879999999	1495.494184	-359.177387	680.518003	1450.560115	-125.047259	614.422141	1405.4626	-185.871135	590.2603360000001	1364.257322	-127.548159	502.543503	1294.734158	-116.084803	523.900154	1271.174845	-191.907435	849.701548	1359.938748	-584.422465	794.527649	1277.674012	-578.73	830.469602	1217.214506	-624.825104	854.816135	1133.748101	-645.277681	800.373556	1117.145346	-582.913998	565.760779	1217.012539	-69.318744	678.4032979999999	1107.135695	-44.408742	619.069709	1065.791073	-53.005374	948.087234	1139.126549	-584.060529	1036.044592	1154.95703	-450.020523	1059.688547	1093.121426	-479.940506	
